# Blender 4.2.2 LTS
# www.blender.org
mtllib button_base.mtl
o Frame
v -2.474782 -0.200000 0.985911
v -2.997389 -0.200000 0.463304
v -2.674774 -0.200000 0.946130
v -2.844320 -0.200000 0.832843
v -2.957607 -0.200000 0.663297
v -2.997389 -0.200000 -0.463304
v -2.474782 -0.200000 -0.985911
v -2.957607 -0.200000 -0.663297
v -2.844320 -0.200000 -0.832843
v -2.674774 -0.200000 -0.946130
v 2.997389 -0.200000 0.463304
v 2.474782 -0.200000 0.985911
v 2.957607 -0.200000 0.663297
v 2.844320 -0.200000 0.832843
v 2.674774 -0.200000 0.946130
v 2.474782 -0.200000 -0.985911
v 2.997389 -0.200000 -0.463304
v 2.674774 -0.200000 -0.946130
v 2.844320 -0.200000 -0.832843
v 2.957607 -0.200000 -0.663297
v -2.461384 0.100534 0.849881
v -2.621698 0.100534 0.817992
v -2.746248 0.100534 0.734771
v -2.829470 0.100534 0.610221
v -2.861359 0.100534 0.449906
v -2.621698 0.100534 -0.817992
v -2.461384 0.100534 -0.849881
v -2.746248 0.100534 -0.734771
v -2.829470 0.100534 -0.610220
v -2.861359 0.100534 -0.449906
v 2.829470 0.100534 -0.610221
v 2.861359 0.100534 -0.449906
v 2.746248 0.100534 -0.734771
v 2.621698 0.100534 -0.817992
v 2.461384 0.100534 -0.849881
v 2.621698 0.100534 0.817992
v 2.461384 0.100534 0.849881
v 2.746248 0.100534 0.734771
v 2.829470 0.100534 0.610220
v 2.861359 0.100534 0.449906
v -2.861359 0.150787 0.449906
v -2.910572 0.200000 0.454753
v -2.875773 0.185586 0.451326
v -2.466231 0.200000 0.899094
v -2.461384 0.150787 0.849881
v -2.462804 0.185586 0.864295
v -2.829470 0.150787 0.610221
v -2.875827 0.200000 0.629422
v -2.843048 0.185586 0.615845
v -2.746248 0.150787 0.734771
v -2.781729 0.200000 0.770251
v -2.756640 0.185586 0.745163
v -2.621698 0.150787 0.817992
v -2.640900 0.200000 0.864350
v -2.627322 0.185586 0.831570
v -2.461384 0.150787 -0.849881
v -2.466231 0.200000 -0.899094
v -2.462804 0.185586 -0.864295
v -2.910572 0.200000 -0.454753
v -2.861359 0.150787 -0.449906
v -2.875773 0.185586 -0.451325
v -2.640900 0.200000 -0.864350
v -2.621698 0.150787 -0.817992
v -2.627322 0.185586 -0.831570
v -2.781729 0.200000 -0.770251
v -2.746248 0.150787 -0.734771
v -2.756640 0.185586 -0.745163
v -2.875827 0.200000 -0.629422
v -2.829470 0.150787 -0.610220
v -2.843048 0.185586 -0.615845
v 2.461384 0.150787 0.849881
v 2.466231 0.200000 0.899094
v 2.462804 0.185586 0.864295
v 2.910572 0.200000 0.454753
v 2.861359 0.150787 0.449906
v 2.875773 0.185586 0.451325
v 2.640900 0.200000 0.864350
v 2.621698 0.150787 0.817992
v 2.627322 0.185586 0.831570
v 2.781729 0.200000 0.770251
v 2.746248 0.150787 0.734771
v 2.756640 0.185586 0.745163
v 2.875827 0.200000 0.629422
v 2.829470 0.150787 0.610220
v 2.843048 0.185586 0.615845
v 2.861359 0.150787 -0.449906
v 2.910572 0.200000 -0.454753
v 2.875773 0.185586 -0.451326
v 2.466231 0.200000 -0.899094
v 2.461384 0.150787 -0.849881
v 2.462804 0.185586 -0.864295
v 2.875827 0.200000 -0.629422
v 2.829470 0.150787 -0.610221
v 2.843048 0.185586 -0.615845
v 2.781729 0.200000 -0.770251
v 2.746248 0.150787 -0.734771
v 2.756640 0.185586 -0.745163
v 2.640900 0.200000 -0.864350
v 2.621698 0.150787 -0.817992
v 2.627322 0.185586 -0.831570
v -2.474782 0.150787 0.985911
v -2.469934 0.200000 0.936698
v -2.473362 0.185586 0.971497
v -2.655573 0.200000 0.899772
v -2.674774 0.150787 0.946130
v -2.669150 0.185586 0.932552
v -2.808840 0.200000 0.797362
v -2.844320 0.150787 0.832843
v -2.833928 0.185586 0.822451
v -2.911250 0.200000 0.644095
v -2.957607 0.150787 0.663297
v -2.944030 0.185586 0.657673
v -2.948176 0.200000 0.458457
v -2.997389 0.150787 0.463304
v -2.982974 0.185586 0.461884
v -2.674774 0.150787 -0.946130
v -2.655573 0.200000 -0.899772
v -2.669150 0.185586 -0.932552
v -2.469934 0.200000 -0.936698
v -2.474782 0.150787 -0.985911
v -2.473362 0.185586 -0.971497
v -2.844320 0.150787 -0.832843
v -2.808840 0.200000 -0.797362
v -2.833928 0.185586 -0.822451
v -2.957607 0.150787 -0.663297
v -2.911250 0.200000 -0.644095
v -2.944030 0.185586 -0.657673
v -2.997389 0.150787 -0.463304
v -2.948176 0.200000 -0.458457
v -2.982974 0.185586 -0.461884
v 2.957607 0.150787 -0.663297
v 2.911250 0.200000 -0.644095
v 2.944030 0.185586 -0.657673
v 2.948176 0.200000 -0.458457
v 2.997389 0.150787 -0.463304
v 2.982974 0.185586 -0.461884
v 2.844320 0.150787 -0.832843
v 2.808840 0.200000 -0.797362
v 2.833928 0.185586 -0.822451
v 2.674774 0.150787 -0.946130
v 2.655573 0.200000 -0.899772
v 2.669150 0.185586 -0.932552
v 2.474782 0.150787 -0.985911
v 2.469934 0.200000 -0.936698
v 2.473362 0.185586 -0.971497
v 2.674774 0.150787 0.946130
v 2.655573 0.200000 0.899772
v 2.669150 0.185586 0.932552
v 2.469934 0.200000 0.936698
v 2.474782 0.150787 0.985911
v 2.473362 0.185586 0.971497
v 2.844320 0.150787 0.832843
v 2.808840 0.200000 0.797362
v 2.833928 0.185586 0.822451
v 2.957607 0.150787 0.663297
v 2.911250 0.200000 0.644095
v 2.944030 0.185586 0.657673
v 2.997389 0.150787 0.463304
v 2.948176 0.200000 0.458457
v 2.982974 0.185586 0.461884
vn -0.3827 -0.0000 0.9239
vn -0.3754 0.1938 0.9064
vn -0.6937 0.1938 0.6937
vn -0.7071 -0.0000 0.7071
vn 0.6937 0.1938 -0.6937
vn 0.7071 -0.0000 -0.7071
vn 0.3827 -0.0000 -0.9239
vn 0.3754 0.1938 -0.9064
vn 0.0961 0.1983 0.9754
vn 0.3747 0.2034 0.9046
vn 0.3827 -0.0000 0.9239
vn 0.0980 -0.0000 0.9952
vn -0.0962 0.1936 -0.9764
vn -0.0980 -0.0000 -0.9952
vn -0.3827 -0.0000 -0.9239
vn -0.3754 0.1938 -0.9064
vn -0.6937 0.1938 -0.6937
vn -0.7071 -0.0000 -0.7071
vn -0.9239 -0.0000 -0.3827
vn -0.9064 0.1938 -0.3754
vn 0.0962 0.1936 0.9764
vn -0.0962 0.1936 0.9764
vn -0.0980 -0.0000 0.9952
vn -0.9064 0.1938 0.3754
vn -0.9239 -0.0000 0.3827
vn -0.9764 0.1936 0.0962
vn -0.9952 -0.0000 0.0980
vn -0.9764 0.1936 -0.0962
vn -0.9952 -0.0000 -0.0980
vn 0.0962 0.1936 -0.9764
vn 0.0980 -0.0000 -0.9952
vn 0.9764 0.1936 -0.0962
vn 0.9952 -0.0000 -0.0980
vn 0.9239 -0.0000 -0.3827
vn 0.9064 0.1938 -0.3754
vn 0.9764 0.1936 0.0962
vn 0.9952 -0.0000 0.0980
vn 0.3754 0.1938 0.9064
vn 0.7071 -0.0000 0.7071
vn 0.6937 0.1938 0.6937
vn 0.9239 -0.0000 0.3827
vn 0.9064 0.1938 0.3754
vn -0.0000 -1.0000 -0.0000
vn 0.0961 0.1983 -0.9754
vn -0.0961 0.1983 -0.9754
vn 0.6923 0.2034 -0.6923
vn 0.3747 0.2034 -0.9046
vn 0.0645 0.9857 -0.1556
vn 0.1191 0.9857 -0.1191
vn -0.1518 0.9767 0.1518
vn -0.0821 0.9767 0.1983
vn 0.9754 0.1983 0.0961
vn 0.9754 0.1983 -0.0961
vn -0.0961 0.1983 0.9754
vn 0.6923 0.2034 0.6923
vn 0.9046 0.2034 0.3747
vn -0.3747 0.2034 -0.9046
vn -0.3747 0.2034 0.9046
vn -0.6923 0.2034 0.6923
vn -0.9046 0.2034 0.3747
vn -0.9046 0.2034 -0.3747
vn -0.9754 0.1983 -0.0961
vn -0.6923 0.2034 -0.6923
vn -0.9754 0.1983 0.0961
vn 0.1556 0.9857 -0.0645
vn 0.1816 0.9832 -0.0179
vn -0.2049 0.9786 0.0202
vn -0.1983 0.9767 0.0821
vn 0.9046 0.2034 -0.3747
vn 0.0645 0.9857 0.1556
vn 0.0179 0.9832 0.1816
vn -0.0202 0.9786 -0.2049
vn -0.0821 0.9767 -0.1983
vn -0.0000 1.0000 -0.0000
vn -0.1191 0.9857 0.1191
vn -0.1556 0.9857 0.0645
vn 0.1983 0.9767 -0.0821
vn 0.1518 0.9767 -0.1518
vn -0.0179 0.9832 -0.1816
vn 0.0179 0.9832 -0.1816
vn -0.0202 0.9786 0.2049
vn 0.0202 0.9786 0.2049
vn -0.0645 0.9857 0.1556
vn 0.0821 0.9767 -0.1983
vn 0.1816 0.9832 0.0179
vn -0.2049 0.9786 -0.0202
vn -0.1816 0.9832 0.0179
vn -0.1816 0.9832 -0.0179
vn 0.2049 0.9786 0.0202
vn 0.2049 0.9786 -0.0202
vn -0.0179 0.9832 0.1816
vn 0.0202 0.9786 -0.2049
vn -0.0645 0.9857 -0.1556
vn 0.0821 0.9767 0.1983
vn 0.1191 0.9857 0.1191
vn -0.1518 0.9767 -0.1518
vn -0.1191 0.9857 -0.1191
vn 0.1518 0.9767 0.1518
vn 0.1556 0.9857 0.0645
vn -0.1983 0.9767 -0.0821
vn -0.1556 0.9857 -0.0645
vn 0.1983 0.9767 0.0821
vn -0.2774 0.6889 0.6697
vn -0.0703 0.6966 0.7140
vn -0.5126 0.6889 0.5126
vn -0.6697 0.6889 0.2774
vn -0.7140 0.6966 0.0703
vn -0.0703 0.6966 -0.7140
vn -0.2774 0.6889 -0.6697
vn -0.5126 0.6889 -0.5126
vn -0.6697 0.6889 -0.2774
vn -0.7140 0.6966 -0.0703
vn 0.7140 0.6966 -0.0703
vn 0.6697 0.6889 -0.2774
vn 0.5126 0.6889 -0.5126
vn 0.2774 0.6889 -0.6697
vn 0.0703 0.6966 -0.7140
vn 0.0703 0.6966 0.7140
vn 0.2774 0.6889 0.6697
vn 0.5126 0.6889 0.5126
vn 0.6697 0.6889 0.2774
vn 0.7140 0.6966 0.0703
vn 0.2588 0.7365 -0.6249
vn 0.0680 0.7204 -0.6902
vn 0.4783 0.7365 -0.4783
vn 0.6249 0.7365 -0.2588
vn 0.6902 0.7205 -0.0680
vn 0.0680 0.7204 0.6902
vn 0.2588 0.7365 0.6249
vn 0.4783 0.7365 0.4783
vn 0.6249 0.7365 0.2588
vn 0.6902 0.7205 0.0680
vn -0.6902 0.7205 0.0680
vn -0.6249 0.7365 0.2588
vn -0.4783 0.7365 0.4783
vn -0.2588 0.7365 0.6249
vn -0.0680 0.7204 0.6902
vn -0.0680 0.7204 -0.6902
vn -0.2588 0.7365 -0.6249
vn -0.4783 0.7365 -0.4783
vn -0.6249 0.7365 -0.2588
vn -0.6902 0.7205 -0.0680
vt 0.375000 0.986546
vt 0.594242 0.986546
vt 0.594242 1.000000
vt 0.375000 1.000000
vt 0.594242 0.500000
vt 0.375000 0.500000
vt 0.375000 0.486546
vt 0.594242 0.486546
vt 0.852647 0.517247
vt 0.859333 0.521290
vt 0.594242 0.271794
vt 0.375000 0.271794
vt 0.375000 0.263454
vt 0.594242 0.263454
vt 0.594242 0.250000
vt 0.375000 0.250000
vt 0.375000 0.209097
vt 0.594242 0.209097
vt 0.375000 0.771794
vt 0.594242 0.771794
vt 0.594242 0.978206
vt 0.375000 0.978206
vt 0.375000 0.000000
vt 0.594242 0.000000
vt 0.594242 0.040903
vt 0.375000 0.040903
vt 0.594242 0.040903
vt 0.594242 0.066259
vt 0.375000 0.066259
vt 0.594242 0.066259
vt 0.594242 0.183741
vt 0.375000 0.183741
vt 0.594242 0.263454
vt 0.594242 0.250000
vt 0.594242 0.271794
vt 0.594242 0.478206
vt 0.375000 0.478206
vt 0.594242 0.209097
vt 0.594242 0.183741
vt 0.594242 0.566259
vt 0.375000 0.566259
vt 0.375000 0.540903
vt 0.594242 0.540903
vt 0.594242 0.540903
vt 0.594242 0.500000
vt 0.594242 0.566259
vt 0.594242 0.683741
vt 0.375000 0.683741
vt 0.594242 0.486546
vt 0.594242 0.478206
vt 0.594242 0.771794
vt 0.375000 0.763454
vt 0.594242 0.763454
vt 0.594242 0.763454
vt 0.375000 0.750000
vt 0.594242 0.750000
vt 0.594242 0.750000
vt 0.375000 0.709097
vt 0.594242 0.709097
vt 0.594242 0.709097
vt 0.594242 0.683741
vt 0.125000 0.566259
vt 0.126659 0.540903
vt 0.131383 0.519407
vt 0.138454 0.505044
vt 0.146794 0.500000
vt 0.353206 0.500000
vt 0.361546 0.505044
vt 0.368617 0.519407
vt 0.373341 0.540903
vt 0.375000 0.566259
vt 0.375000 0.683741
vt 0.373341 0.709097
vt 0.368617 0.730593
vt 0.361546 0.744956
vt 0.353206 0.750000
vt 0.146794 0.750000
vt 0.138454 0.744956
vt 0.131383 0.730593
vt 0.126659 0.709097
vt 0.125000 0.683741
vt 0.852647 0.732753
vt 0.647353 0.732753
vt 0.864527 0.718159
vt 0.859333 0.728710
vt 0.859333 0.728710
vt 0.860133 0.734588
vt 0.866006 0.722657
vt 0.867137 0.726095
vt 0.860745 0.739079
vt 0.869327 0.567958
vt 0.869327 0.682042
vt 0.647353 0.517247
vt 0.864527 0.531841
vt 0.867997 0.547632
vt 0.640667 0.728710
vt 0.864527 0.531841
vt 0.640667 0.521290
vt 0.635473 0.531841
vt 0.640667 0.521290
vt 0.594242 0.978206
vt 0.594242 0.986546
vt 0.632003 0.547632
vt 0.632003 0.702368
vt 0.630673 0.682042
vt 0.635473 0.718159
vt 0.630673 0.567958
vt 0.869931 0.704802
vt 0.871379 0.682656
vt 0.872948 0.683126
vt 0.871408 0.706662
vt 0.867997 0.702368
vt 0.860133 0.515412
vt 0.852849 0.511007
vt 0.853004 0.506239
vt 0.860745 0.510921
vt 0.633994 0.527343
vt 0.630069 0.545198
vt 0.628592 0.543338
vt 0.632863 0.523905
vt 0.867137 0.726095
vt 0.647151 0.738993
vt 0.852849 0.738993
vt 0.853004 0.743761
vt 0.646996 0.743760
vt 0.639867 0.515412
vt 0.633994 0.527343
vt 0.632863 0.523905
vt 0.639255 0.510921
vt 0.871379 0.567343
vt 0.872948 0.566874
vt 0.872948 0.683126
vt 0.628621 0.567344
vt 0.628620 0.682656
vt 0.627052 0.683126
vt 0.627052 0.566874
vt 0.647151 0.511007
vt 0.639867 0.515412
vt 0.646996 0.506240
vt 0.852849 0.511007
vt 0.853004 0.506239
vt 0.869327 0.567958
vt 0.639867 0.734588
vt 0.647151 0.738993
vt 0.646996 0.743761
vt 0.639255 0.739079
vt 0.866006 0.527343
vt 0.867137 0.523905
vt 0.633994 0.722657
vt 0.639255 0.739079
vt 0.632863 0.726095
vt 0.869931 0.545198
vt 0.866006 0.527343
vt 0.867137 0.523905
vt 0.871408 0.543338
vt 0.630069 0.704802
vt 0.633994 0.722657
vt 0.628592 0.706662
vt 0.628620 0.682656
vt 0.627052 0.683126
vt 0.630069 0.545198
vt 0.628592 0.543338
vt 0.861429 0.745027
vt 0.853264 0.749965
vt 0.625000 0.978264
vt 0.625000 0.986429
vt 0.868517 0.730795
vt 0.861646 0.744754
vt 0.625000 0.986735
vt 0.625000 0.999811
vt 0.873275 0.709399
vt 0.868683 0.730291
vt 0.625000 0.000575
vt 0.625000 0.040328
vt 0.874988 0.683917
vt 0.873364 0.708740
vt 0.625000 0.041260
vt 0.625000 0.066083
vt 0.853264 0.500035
vt 0.861429 0.504973
vt 0.625000 0.263571
vt 0.625000 0.271736
vt 0.861646 0.505246
vt 0.868517 0.519205
vt 0.625000 0.250189
vt 0.625000 0.263265
vt 0.868683 0.519709
vt 0.873275 0.540601
vt 0.625000 0.209672
vt 0.625000 0.249425
vt 0.873364 0.541260
vt 0.874988 0.566083
vt 0.625000 0.183917
vt 0.625000 0.208740
vt 0.625003 0.566261
vt 0.625818 0.541260
vt 0.626725 0.540601
vt 0.631317 0.519709
vt 0.625000 0.500575
vt 0.625000 0.540328
vt 0.631483 0.519205
vt 0.638355 0.505246
vt 0.625000 0.486735
vt 0.625000 0.499811
vt 0.638571 0.504973
vt 0.646736 0.500035
vt 0.625000 0.478264
vt 0.625000 0.486429
vt 0.646736 0.749965
vt 0.638571 0.745027
vt 0.625000 0.763571
vt 0.625000 0.771736
vt 0.638355 0.744754
vt 0.631483 0.730795
vt 0.625000 0.750189
vt 0.625000 0.763265
vt 0.631317 0.730291
vt 0.626725 0.709399
vt 0.625000 0.709672
vt 0.625000 0.749425
vt 0.625818 0.708740
vt 0.625003 0.683739
vt 0.875000 0.566439
vt 0.875000 0.683561
vt 0.625000 0.066439
vt 0.625000 0.183561
vt 0.853147 0.750000
vt 0.646853 0.750000
vt 0.625000 0.771854
vt 0.625000 0.978146
vt 0.625000 0.271854
vt 0.625000 0.478146
vt 0.646853 0.500000
vt 0.853147 0.500000
vt 0.867997 0.702368
s 1
f 3/1/1 105/2/2 108/3/3 4/4/4
f 137/5/5 19/6/6 18/7/7 140/8/8
f 56/9/9 63/10/10 26/10/11 27/9/12
f 120/11/13 7/12/14 10/13/15 116/14/16
f 122/15/17 9/16/18 8/17/19 125/18/20
f 12/19/12 150/20/21 101/21/22 1/22/23
f 4/23/4 108/24/3 111/25/24 5/26/25
f 5/26/25 111/27/24 114/28/26 2/29/27
f 2/29/27 114/30/26 128/31/28 6/32/29
f 116/33/16 10/13/15 9/16/18 122/34/17
f 7/12/14 120/35/13 143/36/30 16/37/31
f 125/38/20 8/17/19 6/32/29 128/39/28
f 135/40/32 17/41/33 20/42/34 131/43/35
f 131/44/35 20/42/34 19/6/6 137/45/5
f 17/41/33 135/46/32 158/47/36 11/48/37
f 140/49/8 18/7/7 16/37/31 143/50/30
f 150/51/21 12/19/12 15/52/11 146/53/38
f 146/54/38 15/52/11 14/55/39 152/56/40
f 152/57/40 14/55/39 13/58/41 155/59/42
f 155/60/42 13/58/41 11/48/37 158/61/36
f 6/62/43 8/63/43 9/64/43 10/65/43 7/66/43 16/67/43 18/68/43 19/69/43 20/70/43 17/71/43 11/72/43 13/73/43 14/74/43 15/75/43 12/76/43 1/77/43 3/78/43 4/79/43 5/80/43 2/81/43
f 45/82/44 71/83/45 37/83/14 21/82/31
f 50/84/46 53/85/47 22/86/7 23/84/6
f 54/87/48 51/88/49 107/89/50 104/90/51
f 60/91/52 41/92/53 25/92/33 30/91/37
f 90/93/54 56/9/9 27/9/12 35/93/23
f 66/94/55 69/95/56 29/95/41 28/94/39
f 71/83/45 78/96/57 36/96/15 37/83/14
f 63/10/10 66/97/55 28/94/39 26/10/11
f 99/98/58 90/93/54 35/93/23 34/98/1
f 96/99/59 99/100/58 34/98/1 33/99/4
f 1/22/23 101/101/22 105/102/2 3/1/1
f 93/103/60 96/99/59 33/99/4 31/103/25
f 84/104/61 75/105/62 40/105/29 39/104/19
f 81/106/63 84/104/61 39/104/19 38/106/18
f 86/107/64 93/103/60 31/103/25 32/107/27
f 75/105/62 86/107/64 32/107/27 40/105/29
f 48/108/65 42/109/66 113/110/67 110/111/68
f 47/112/69 50/84/46 23/84/6 24/112/34
f 78/96/57 81/106/63 38/106/18 36/96/15
f 62/113/70 57/114/71 119/115/72 117/116/73
f 32/107/74 31/103/74 33/99/74 34/98/74 35/93/74 27/9/74 26/10/74 28/94/74 29/95/74 30/91/74 25/92/74 24/112/74 23/84/74 22/86/74 21/82/74 37/83/74 36/96/74 38/106/74 39/104/74 40/105/74
f 53/86/47 45/82/44 21/82/31 22/86/7
f 95/117/75 92/118/76 132/119/77 138/120/78
f 51/88/49 48/108/65 110/111/68 107/121/50
f 72/122/79 44/123/80 102/124/81 149/125/82
f 98/126/83 95/127/75 138/128/78 141/129/84
f 42/109/66 59/130/85 129/131/86 113/132/67
f 87/133/87 74/134/88 159/135/89 134/136/90
f 89/137/91 98/138/83 141/129/84 144/139/92
f 57/140/71 89/137/91 144/139/92 119/141/72
f 69/95/56 60/142/52 30/91/37 29/95/41
f 77/143/93 72/144/79 149/145/82 147/146/94
f 65/147/95 62/113/70 117/116/73 123/148/96
f 80/149/97 77/143/93 147/150/94 153/151/98
f 68/152/99 65/153/95 123/154/96 126/155/100
f 83/156/101 80/157/97 153/151/98 156/158/102
f 59/130/85 68/152/99 126/155/100 129/131/86
f 44/123/80 54/87/48 104/90/51 102/124/81
f 74/159/88 83/156/101 156/158/102 159/160/89
f 92/161/76 87/133/87 134/136/90 132/162/77
f 102/124/81 104/90/51 106/163/103 103/164/104
f 103/165/104 106/166/103 105/102/2 101/101/22
f 104/90/51 107/89/50 109/167/105 106/168/103
f 106/169/103 109/170/105 108/3/3 105/2/2
f 107/121/50 110/111/68 112/171/106 109/172/105
f 109/173/105 112/174/106 111/25/24 108/24/3
f 110/111/68 113/110/67 115/175/107 112/176/106
f 112/177/106 115/178/107 114/28/26 111/27/24
f 117/116/73 119/115/72 121/179/108 118/180/109
f 118/181/109 121/182/108 120/11/13 116/14/16
f 123/148/96 117/116/73 118/183/109 124/184/110
f 124/185/110 118/186/109 116/33/16 122/34/17
f 126/155/100 123/154/96 124/187/110 127/188/111
f 127/189/111 124/190/110 122/15/17 125/18/20
f 129/131/86 126/155/100 127/191/111 130/192/112
f 130/193/112 127/194/111 125/38/20 128/39/28
f 132/162/77 134/136/90 136/195/113 133/196/114
f 133/196/114 136/195/113 135/40/32 131/43/35
f 138/120/78 132/119/77 133/197/114 139/198/115
f 139/199/115 133/200/114 131/44/35 137/45/5
f 141/129/84 138/128/78 139/201/115 142/202/116
f 142/203/116 139/204/115 137/5/5 140/8/8
f 144/139/92 141/129/84 142/205/116 145/206/117
f 145/207/117 142/208/116 140/49/8 143/50/30
f 147/146/94 149/145/82 151/209/118 148/210/119
f 148/211/119 151/212/118 150/51/21 146/53/38
f 153/151/98 147/150/94 148/213/119 154/214/120
f 154/215/120 148/216/119 146/54/38 152/56/40
f 156/158/102 153/151/98 154/217/120 157/218/121
f 157/219/121 154/220/120 152/57/40 155/59/42
f 159/160/89 156/158/102 157/221/121 160/222/122
f 160/222/122 157/221/121 155/60/42 158/61/36
f 113/132/67 129/131/86 130/223/112 115/224/107
f 115/225/107 130/226/112 128/31/28 114/30/26
f 149/125/82 102/124/81 103/227/104 151/228/118
f 151/229/118 103/230/104 101/21/22 150/20/21
f 158/47/36 135/46/32 136/195/113 160/222/122
f 160/222/122 136/195/113 134/136/90 159/135/89
f 143/36/30 120/35/13 121/231/108 145/232/117
f 145/233/117 121/234/108 119/141/72 144/139/92
f 45/82/44 53/86/47 55/86/123 46/82/124
f 46/82/124 55/86/123 54/87/48 44/123/80
f 53/85/47 50/84/46 52/84/125 55/86/123
f 55/86/123 52/84/125 51/88/49 54/87/48
f 50/84/46 47/112/69 49/112/126 52/84/125
f 52/84/125 49/112/126 48/108/65 51/88/49
f 47/235/69 41/92/53 43/92/127 49/112/126
f 49/112/126 43/92/127 42/109/66 48/108/65
f 63/10/10 56/9/9 58/9/128 64/10/129
f 64/10/129 58/9/128 57/114/71 62/113/70
f 66/97/55 63/10/10 64/10/129 67/94/130
f 67/94/130 64/10/129 62/113/70 65/147/95
f 69/95/56 66/94/55 67/94/130 70/95/131
f 70/95/131 67/94/130 65/153/95 68/152/99
f 60/142/52 69/95/56 70/95/131 61/91/132
f 61/91/132 70/95/131 68/152/99 59/130/85
f 93/103/60 86/107/64 88/107/133 94/103/134
f 94/103/134 88/107/133 87/133/87 92/161/76
f 96/99/59 93/103/60 94/103/134 97/99/135
f 97/99/135 94/103/134 92/118/76 95/117/75
f 99/100/58 96/99/59 97/99/135 100/98/136
f 100/98/136 97/99/135 95/127/75 98/126/83
f 90/93/54 99/98/58 100/98/136 91/93/137
f 91/93/137 100/98/136 98/138/83 89/137/91
f 78/96/57 71/83/45 73/83/138 79/96/139
f 79/96/139 73/83/138 72/144/79 77/143/93
f 81/106/63 78/96/57 79/96/139 82/106/140
f 82/106/140 79/96/139 77/143/93 80/149/97
f 84/104/61 81/106/63 82/106/140 85/104/141
f 85/104/141 82/106/140 80/157/97 83/156/101
f 75/105/62 84/104/61 85/104/141 76/105/142
f 76/105/142 85/104/141 83/156/101 74/159/88
f 41/92/53 60/91/52 61/91/132 43/92/127
f 43/92/127 61/91/132 59/130/85 42/109/66
f 71/83/45 45/82/44 46/82/124 73/83/138
f 73/83/138 46/82/124 44/123/80 72/122/79
f 74/134/88 87/133/87 88/107/133 76/105/142
f 76/105/142 88/107/133 86/107/64 75/105/62
f 89/137/91 57/140/71 58/9/128 91/93/137
f 91/93/137 58/9/128 56/9/9 90/93/54
f 41/92/53 47/235/69 24/112/34 25/92/33
