# Blender 4.2.1 LTS
# www.blender.org
o Popper
v -0.769918 -0.730113 0.888090
v -0.888090 -0.730113 0.769918
v -0.853478 -0.730113 0.853478
v 0.888090 -0.730113 0.769918
v 0.769918 -0.730113 0.888090
v 0.853478 -0.730113 0.853478
v -0.888090 -0.730113 -0.769918
v -0.769918 -0.730113 -0.888090
v -0.853478 -0.730113 -0.853478
v 0.769918 -0.730113 -0.888090
v 0.888090 -0.730113 -0.769918
v 0.853478 -0.730113 -0.853478
v -0.888090 0.367488 0.769918
v -0.769918 0.367488 0.888090
v -0.769918 0.485661 0.769918
v -0.853478 0.367489 0.853478
v -0.838144 0.435715 0.838144
v -0.769917 0.451049 0.853478
v -0.853478 0.451049 0.769917
v 0.769918 0.367488 0.888090
v 0.888090 0.367488 0.769918
v 0.769918 0.485661 0.769918
v 0.853478 0.367489 0.853478
v 0.838144 0.435715 0.838144
v 0.853478 0.451049 0.769917
v 0.769917 0.451049 0.853478
v -0.888090 0.367488 -0.769918
v -0.769918 0.485661 -0.769918
v -0.769918 0.367488 -0.888090
v -0.853478 0.451049 -0.769917
v -0.838144 0.435715 -0.838144
v -0.769917 0.451049 -0.853478
v -0.853478 0.367489 -0.853478
v 0.888090 0.367488 -0.769918
v 0.769918 0.367488 -0.888090
v 0.769918 0.485661 -0.769918
v 0.853478 0.367489 -0.853478
v 0.838144 0.435715 -0.838144
v 0.769917 0.451049 -0.853478
v 0.853478 0.451049 -0.769917
vn -0.1951 -0.0000 0.9808
vn -0.9808 -0.0000 0.1951
vn -0.7071 -0.0000 0.7071
vn 0.9808 -0.0000 0.1951
vn 0.1951 -0.0000 0.9808
vn 0.7071 -0.0000 0.7071
vn -0.9808 -0.0000 -0.1951
vn -0.1951 -0.0000 -0.9808
vn -0.7071 -0.0000 -0.7071
vn 0.1951 -0.0000 -0.9808
vn 0.9808 -0.0000 -0.1951
vn 0.7071 -0.0000 -0.7071
vn -0.9673 0.1794 0.1794
vn -0.1794 0.1794 0.9673
vn -0.1794 0.9673 0.1794
vn -0.6965 0.1726 0.6965
vn -0.5773 0.5774 0.5774
vn -0.1726 0.6965 0.6965
vn -0.6965 0.6965 0.1726
vn 0.1794 0.1794 0.9673
vn 0.9673 0.1794 0.1794
vn 0.1794 0.9673 0.1794
vn 0.6965 0.1726 0.6965
vn 0.5773 0.5774 0.5774
vn 0.6965 0.6965 0.1726
vn 0.1726 0.6965 0.6965
vn -0.9673 0.1794 -0.1794
vn -0.1794 0.9673 -0.1794
vn -0.1794 0.1794 -0.9673
vn -0.6965 0.6965 -0.1726
vn -0.5773 0.5774 -0.5774
vn -0.1726 0.6965 -0.6965
vn -0.6965 0.1726 -0.6965
vn 0.9673 0.1794 -0.1794
vn 0.1794 0.1794 -0.9673
vn 0.1794 0.9673 -0.1794
vn 0.6965 0.1726 -0.6965
vn 0.5773 0.5774 -0.5774
vn 0.1726 0.6965 -0.6965
vn 0.6965 0.6965 -0.1726
vt 0.066532 0.066532
vt 0.933468 0.066532
vt 0.933468 0.933468
vt 0.066532 0.933468
vt 1.000000 0.066532
vt 1.000000 0.933468
vt 1.000000 0.933468
vt 0.933468 1.000000
vt 0.066532 1.000000
vt 0.066532 1.000000
vt 0.933468 1.000000
vt 0.066532 0.000000
vt 0.933468 0.000000
vt 0.933468 0.000000
vt 0.000000 0.066532
vt 0.000000 0.000000
vt 0.009373 0.009373
vt 0.000000 0.066532
vt 0.066532 0.000000
vt 1.000000 0.000000
vt 0.990627 0.009373
vt 1.000000 0.066532
vt 0.000000 0.933468
vt 0.000000 0.933468
vt 0.009373 0.990627
vt 0.000000 1.000000
vt 1.000000 1.000000
vt 0.990627 0.990627
s 1
f 15/1/15 22/2/22 36/3/36 28/4/28
f 4/5/4 11/6/11 34/7/34 21/5/21
f 10/8/10 8/9/8 29/10/29 35/11/35
f 1/12/1 5/13/5 20/14/20 14/12/14
f 13/15/13 16/16/16 17/17/17 19/18/19
f 14/12/14 18/19/18 17/17/17 16/16/16
f 15/1/15 19/18/19 17/17/17 18/19/18
f 20/14/20 23/20/23 24/21/24 26/13/26
f 21/5/21 25/22/25 24/21/24 23/20/23
f 22/2/22 26/13/26 24/21/24 25/22/25
f 27/23/27 30/24/30 31/25/31 33/26/33
f 28/4/28 32/9/32 31/25/31 30/24/30
f 29/10/29 33/26/33 31/25/31 32/9/32
f 34/7/34 37/27/37 38/28/38 40/6/40
f 35/11/35 39/8/39 38/28/38 37/27/37
f 36/3/36 40/6/40 38/28/38 39/8/39
f 27/23/27 13/15/13 19/18/19 30/24/30
f 30/24/30 19/18/19 15/1/15 28/4/28
f 14/12/14 20/14/20 26/13/26 18/19/18
f 18/19/18 26/13/26 22/2/22 15/1/15
f 21/5/21 34/7/34 40/6/40 25/22/25
f 25/22/25 40/6/40 36/3/36 22/2/22
f 35/11/35 29/10/29 32/9/32 39/8/39
f 39/8/39 32/9/32 28/4/28 36/3/36
f 7/24/7 27/23/27 33/26/33 9/26/9
f 9/26/9 33/26/33 29/10/29 8/9/8
f 34/7/34 11/6/11 12/27/12 37/27/37
f 37/27/37 12/27/12 10/8/10 35/11/35
f 4/5/4 21/5/21 23/20/23 6/20/6
f 6/20/6 23/20/23 20/14/20 5/13/5
f 13/15/13 2/18/2 3/16/3 16/16/16
f 16/16/16 3/16/3 1/12/1 14/12/14
f 7/24/7 2/18/2 13/15/13 27/23/27
