# Blender 4.2.2 LTS
# www.blender.org
mtllib round_button.mtl
o Cylinder
v 0.000000 0.005242 -0.840742
v 0.321738 0.005242 -0.776744
v 0.594494 0.005242 -0.594494
v 0.776744 0.005242 -0.321738
v 0.840742 0.005242 -0.000000
v 0.776744 0.005242 0.321738
v 0.594494 0.005242 0.594494
v 0.321738 0.005242 0.776744
v 0.000000 0.005242 0.840742
v -0.321738 0.005242 0.776744
v -0.594494 0.005242 0.594494
v -0.776744 0.005242 0.321738
v -0.840742 0.005242 -0.000000
v -0.776744 0.005242 -0.321738
v -0.594494 0.005242 -0.594494
v -0.321738 0.005242 -0.776744
v -0.000000 0.439402 -0.706315
v 0.000000 0.307558 -0.840742
v 0.000000 0.400786 -0.801369
v 0.270295 0.439402 -0.652550
v 0.321738 0.307558 -0.776744
v 0.306671 0.400786 -0.740368
v 0.499440 0.439402 -0.499440
v 0.594494 0.307558 -0.594494
v 0.566653 0.400786 -0.566653
v 0.652550 0.439402 -0.270295
v 0.776744 0.307558 -0.321738
v 0.740368 0.400786 -0.306671
v 0.706315 0.439402 -0.000000
v 0.840742 0.307558 -0.000000
v 0.801369 0.400786 -0.000000
v 0.652550 0.439402 0.270295
v 0.776744 0.307558 0.321738
v 0.740368 0.400786 0.306671
v 0.499440 0.439402 0.499440
v 0.594494 0.307558 0.594494
v 0.566653 0.400786 0.566653
v 0.270295 0.439402 0.652550
v 0.321738 0.307558 0.776744
v 0.306671 0.400786 0.740368
v 0.000000 0.439402 0.706315
v 0.000000 0.307558 0.840742
v 0.000000 0.400786 0.801369
v -0.270295 0.439402 0.652550
v -0.321738 0.307558 0.776744
v -0.306671 0.400786 0.740368
v -0.499440 0.439402 0.499440
v -0.594494 0.307558 0.594494
v -0.566653 0.400786 0.566653
v -0.652550 0.439402 0.270295
v -0.776744 0.307558 0.321738
v -0.740368 0.400786 0.306671
v -0.706315 0.439402 0.000000
v -0.840742 0.307558 -0.000000
v -0.801369 0.400786 -0.000000
v -0.652550 0.439402 -0.270295
v -0.776744 0.307558 -0.321738
v -0.740368 0.400786 -0.306671
v -0.499440 0.439402 -0.499440
v -0.594494 0.307558 -0.594494
v -0.566653 0.400786 -0.566653
v -0.270295 0.439402 -0.652550
v -0.321738 0.307558 -0.776744
v -0.306671 0.400786 -0.740368
vn -0.0000 -0.0000 -1.0000
vn 0.3827 -0.0000 -0.9239
vn 0.7071 -0.0000 -0.7071
vn 0.9239 -0.0000 -0.3827
vn 1.0000 -0.0000 -0.0000
vn 0.9239 -0.0000 0.3827
vn 0.7071 -0.0000 0.7071
vn 0.3827 -0.0000 0.9239
vn -0.0000 -0.0000 1.0000
vn -0.3827 -0.0000 0.9239
vn -0.7071 -0.0000 0.7071
vn -0.9239 -0.0000 0.3827
vn -1.0000 -0.0000 -0.0000
vn -0.9239 -0.0000 -0.3827
vn -0.7071 -0.0000 -0.7071
vn -0.3827 -0.0000 -0.9239
vn -0.0000 0.9767 -0.2146
vn -0.0000 0.1938 -0.9810
vn -0.0000 0.6889 -0.7249
vn 0.0821 0.9767 -0.1983
vn 0.3754 0.1938 -0.9064
vn 0.2774 0.6889 -0.6697
vn 0.1518 0.9767 -0.1518
vn 0.6937 0.1938 -0.6937
vn 0.5126 0.6889 -0.5126
vn 0.1983 0.9767 -0.0821
vn 0.9064 0.1938 -0.3754
vn 0.6697 0.6889 -0.2774
vn 0.2146 0.9767 -0.0000
vn 0.9810 0.1938 -0.0000
vn 0.7249 0.6889 -0.0000
vn 0.1983 0.9767 0.0821
vn 0.9064 0.1938 0.3754
vn 0.6697 0.6889 0.2774
vn 0.1518 0.9767 0.1518
vn 0.6937 0.1938 0.6937
vn 0.5126 0.6889 0.5126
vn 0.0821 0.9767 0.1983
vn 0.3754 0.1938 0.9064
vn 0.2774 0.6889 0.6697
vn -0.0000 0.9767 0.2146
vn -0.0000 0.1938 0.9810
vn -0.0000 0.6889 0.7249
vn -0.0821 0.9767 0.1983
vn -0.3754 0.1938 0.9064
vn -0.2774 0.6889 0.6697
vn -0.1518 0.9767 0.1518
vn -0.6937 0.1938 0.6937
vn -0.5126 0.6889 0.5126
vn -0.1983 0.9767 0.0821
vn -0.9064 0.1938 0.3754
vn -0.6697 0.6889 0.2774
vn -0.2146 0.9767 -0.0000
vn -0.9810 0.1938 -0.0000
vn -0.7249 0.6889 -0.0000
vn -0.1983 0.9767 -0.0821
vn -0.9064 0.1938 -0.3754
vn -0.6697 0.6889 -0.2774
vn -0.1518 0.9767 -0.1518
vn -0.6937 0.1938 -0.6937
vn -0.5126 0.6889 -0.5126
vn -0.0821 0.9767 -0.1983
vn -0.3754 0.1938 -0.9064
vn -0.2774 0.6889 -0.6697
vt 0.062500 0.500000
vt 0.062500 0.848162
vt 0.000000 0.848162
vt 0.000000 0.500000
vt 0.875000 0.500000
vt 0.875000 0.848162
vt 0.812500 0.848162
vt 0.812500 0.500000
vt 0.750000 0.848162
vt 0.750000 0.500000
vt 0.687500 0.848162
vt 0.687500 0.500000
vt 0.625000 0.848162
vt 0.625000 0.500000
vt 0.562500 0.848162
vt 0.562500 0.500000
vt 0.500000 0.848162
vt 0.500000 0.500000
vt 0.437500 0.848162
vt 0.437500 0.500000
vt 0.437500 0.848162
vt 0.375000 0.848162
vt 0.375000 0.500000
vt 0.312500 0.848162
vt 0.312500 0.500000
vt 0.250000 0.848162
vt 0.250000 0.500000
vt 0.187500 0.848162
vt 0.187500 0.500000
vt 0.125000 0.848162
vt 0.125000 0.500000
vt 1.000000 0.500000
vt 1.000000 0.848162
vt 0.937500 0.848162
vt 0.937500 0.500000
vt 0.998537 1.000000
vt 0.938963 1.000000
vt 0.339693 0.472159
vt 0.252151 0.489572
vt 0.250000 0.451626
vt 0.327159 0.436278
vt 0.936037 1.000000
vt 0.876463 1.000000
vt 0.417882 0.420924
vt 0.343667 0.470513
vt 0.392571 0.392571
vt 0.873537 1.000000
vt 0.813963 1.000000
vt 0.470513 0.343667
vt 0.420924 0.417882
vt 0.436278 0.327159
vt 0.811037 1.000000
vt 0.751463 1.000000
vt 0.489572 0.252151
vt 0.472159 0.339693
vt 0.451626 0.250000
vt 0.748537 1.000000
vt 0.688963 1.000000
vt 0.472159 0.160307
vt 0.489572 0.247849
vt 0.436278 0.172841
vt 0.686036 1.000000
vt 0.626463 1.000000
vt 0.420924 0.082118
vt 0.470513 0.156333
vt 0.392571 0.107429
vt 0.623537 1.000000
vt 0.563963 1.000000
vt 0.343667 0.029487
vt 0.417882 0.079076
vt 0.327159 0.063722
vt 0.561037 1.000000
vt 0.501463 1.000000
vt 0.252151 0.010428
vt 0.339693 0.027841
vt 0.250000 0.048374
vt 0.498537 1.000000
vt 0.438963 1.000000
vt 0.160307 0.027841
vt 0.247849 0.010428
vt 0.172841 0.063722
vt 0.436037 1.000000
vt 0.376463 1.000000
vt 0.082118 0.079076
vt 0.156333 0.029487
vt 0.107429 0.107429
vt 0.373537 1.000000
vt 0.313963 1.000000
vt 0.029487 0.156333
vt 0.079076 0.082118
vt 0.063722 0.172841
vt 0.311037 1.000000
vt 0.251463 1.000000
vt 0.010428 0.247849
vt 0.027841 0.160307
vt 0.048374 0.250000
vt 0.248537 1.000000
vt 0.188963 1.000000
vt 0.027841 0.339693
vt 0.010428 0.252151
vt 0.063722 0.327159
vt 0.186037 1.000000
vt 0.126463 1.000000
vt 0.079076 0.417882
vt 0.029487 0.343667
vt 0.107429 0.392571
vt 0.123537 1.000000
vt 0.063963 1.000000
vt 0.156333 0.470513
vt 0.082118 0.420924
vt 0.172841 0.436278
vt 0.061037 1.000000
vt 0.001463 1.000000
vt 0.247849 0.489572
vt 0.160307 0.472159
s 1
f 16/1/16 63/2/63 18/3/18 1/4/1
f 3/5/3 24/6/24 27/7/27 4/8/4
f 4/8/4 27/7/27 30/9/30 5/10/5
f 5/10/5 30/9/30 33/11/33 6/12/6
f 6/12/6 33/11/33 36/13/36 7/14/7
f 7/14/7 36/13/36 39/15/39 8/16/8
f 8/16/8 39/15/39 42/17/42 9/18/9
f 9/18/9 42/17/42 45/19/45 10/20/10
f 10/20/10 45/21/45 48/22/48 11/23/11
f 11/23/11 48/22/48 51/24/51 12/25/12
f 12/25/12 51/24/51 54/26/54 13/27/13
f 13/27/13 54/26/54 57/28/57 14/29/14
f 14/29/14 57/28/57 60/30/60 15/31/15
f 15/31/15 60/30/60 63/2/63 16/1/16
f 1/32/1 18/33/18 21/34/21 2/35/2
f 2/35/2 21/34/21 24/6/24 3/5/3
f 21/34/21 18/33/18 19/36/19 22/37/22
f 22/38/22 19/39/19 17/40/17 20/41/20
f 24/6/24 21/34/21 22/42/22 25/43/25
f 25/44/25 22/45/22 20/41/20 23/46/23
f 27/7/27 24/6/24 25/47/25 28/48/28
f 28/49/28 25/50/25 23/46/23 26/51/26
f 30/9/30 27/7/27 28/52/28 31/53/31
f 31/54/31 28/55/28 26/51/26 29/56/29
f 33/11/33 30/9/30 31/57/31 34/58/34
f 34/59/34 31/60/31 29/56/29 32/61/32
f 36/13/36 33/11/33 34/62/34 37/63/37
f 37/64/37 34/65/34 32/61/32 35/66/35
f 39/15/39 36/13/36 37/67/37 40/68/40
f 40/69/40 37/70/37 35/66/35 38/71/38
f 42/17/42 39/15/39 40/72/40 43/73/43
f 43/74/43 40/75/40 38/71/38 41/76/41
f 45/19/45 42/17/42 43/77/43 46/78/46
f 46/79/46 43/80/43 41/76/41 44/81/44
f 48/22/48 45/21/45 46/82/46 49/83/49
f 49/84/49 46/85/46 44/81/44 47/86/47
f 51/24/51 48/22/48 49/87/49 52/88/52
f 52/89/52 49/90/49 47/86/47 50/91/50
f 54/26/54 51/24/51 52/92/52 55/93/55
f 55/94/55 52/95/52 50/91/50 53/96/53
f 57/28/57 54/26/54 55/97/55 58/98/58
f 58/99/58 55/100/55 53/96/53 56/101/56
f 60/30/60 57/28/57 58/102/58 61/103/61
f 61/104/61 58/105/58 56/101/56 59/106/59
f 63/2/63 60/30/60 61/107/61 64/108/64
f 64/109/64 61/110/61 59/106/59 62/111/62
f 18/3/18 63/2/63 64/112/64 19/113/19
f 19/114/19 64/115/64 62/111/62 17/40/17
f 20/41/20 17/40/17 62/111/62 59/106/59 56/101/56 53/96/53 50/91/50 47/86/47 44/81/44 41/76/41 38/71/38 35/66/35 32/61/32 29/56/29 26/51/26 23/46/23
