# Blender 4.2.2 LTS
# www.blender.org
mtllib slider_slot.mtl
o Slot
v -0.077245 0.150000 -4.727444
v -0.227444 0.150000 -4.577245
v -0.165478 0.150000 -4.703802
v -0.203802 0.150000 -4.665478
v -0.500000 -0.150000 -4.613128
v -0.113128 -0.150000 -5.000000
v -0.448169 -0.150000 -4.806564
v -0.306564 -0.150000 -4.948169
v 0.227444 0.150000 -4.577245
v 0.077245 0.150000 -4.727444
v 0.203802 0.150000 -4.665478
v 0.165478 0.150000 -4.703802
v 0.113128 -0.150000 -5.000000
v 0.500000 -0.150000 -4.613128
v 0.306564 -0.150000 -4.948169
v 0.448169 -0.150000 -4.806564
v -0.227444 0.150000 4.577245
v -0.077245 0.150000 4.727444
v -0.203802 0.150000 4.665478
v -0.165478 0.150000 4.703802
v -0.113128 -0.150000 5.000000
v -0.500000 -0.150000 4.613128
v -0.306564 -0.150000 4.948169
v -0.448169 -0.150000 4.806564
v 0.077245 0.150000 4.727444
v 0.227444 0.150000 4.577245
v 0.165478 0.150000 4.703802
v 0.203802 0.150000 4.665478
v 0.500000 -0.150000 4.613128
v 0.113128 -0.150000 5.000000
v 0.448169 -0.150000 4.806564
v 0.306564 -0.150000 4.948169
v -0.306564 0.150000 -4.948169
v -0.113128 0.150000 -5.000000
v -0.448169 0.150000 -4.806564
v -0.500000 0.150000 -4.613128
v 0.500000 0.150000 4.613128
v 0.448169 0.150000 4.806564
v 0.306564 0.150000 4.948169
v 0.113128 0.150000 5.000000
v 0.448169 0.150000 -4.806564
v 0.500000 0.150000 -4.613128
v 0.306564 0.150000 -4.948169
v 0.113128 0.150000 -5.000000
v -0.448169 0.150000 4.806564
v -0.500000 0.150000 4.613128
v -0.306564 0.150000 4.948169
v -0.113128 0.150000 5.000000
v -0.306564 0.261622 -4.948169
v -0.249917 0.371056 -4.850053
v -0.298974 0.316339 -4.935023
v -0.278240 0.356394 -4.899111
v -0.098720 0.371056 -4.890566
v -0.113128 0.261622 -5.000000
v -0.105924 0.356394 -4.945283
v -0.111197 0.316339 -4.985338
v -0.448169 0.261622 -4.806564
v -0.350053 0.371056 -4.749917
v -0.435024 0.316339 -4.798975
v -0.399111 0.356394 -4.778240
v -0.500000 0.261622 -4.613128
v -0.390566 0.371056 -4.598721
v -0.485339 0.316339 -4.611197
v -0.445283 0.356394 -4.605924
v 0.500000 0.261622 4.613128
v 0.390566 0.371056 4.598721
v 0.485339 0.316339 4.611197
v 0.445283 0.356394 4.605924
v 0.350053 0.371056 4.749917
v 0.448169 0.261622 4.806564
v 0.399111 0.356394 4.778240
v 0.435024 0.316339 4.798975
v 0.249917 0.371056 4.850053
v 0.306564 0.261622 4.948169
v 0.278240 0.356394 4.899111
v 0.298974 0.316339 4.935023
v 0.098720 0.371056 4.890566
v 0.113128 0.261622 5.000000
v 0.105924 0.356394 4.945283
v 0.111197 0.316339 4.985338
v 0.448169 0.261622 -4.806564
v 0.350053 0.371056 -4.749917
v 0.435024 0.316339 -4.798975
v 0.399111 0.356394 -4.778240
v 0.390566 0.371056 -4.598721
v 0.500000 0.261622 -4.613128
v 0.445283 0.356394 -4.605924
v 0.485339 0.316339 -4.611197
v 0.306564 0.261622 -4.948169
v 0.249917 0.371056 -4.850053
v 0.298974 0.316339 -4.935023
v 0.278240 0.356394 -4.899111
v 0.113128 0.261622 -5.000000
v 0.098720 0.371056 -4.890566
v 0.111197 0.316339 -4.985338
v 0.105924 0.356394 -4.945283
v -0.448169 0.261622 4.806564
v -0.350053 0.371056 4.749917
v -0.435024 0.316339 4.798975
v -0.399111 0.356394 4.778240
v -0.390566 0.371056 4.598721
v -0.500000 0.261622 4.613128
v -0.445283 0.356394 4.605924
v -0.485339 0.316339 4.611197
v -0.306564 0.261622 4.948169
v -0.249917 0.371056 4.850053
v -0.298974 0.316339 4.935023
v -0.278240 0.356394 4.899111
v -0.113128 0.261622 5.000000
v -0.098720 0.371056 4.890566
v -0.111197 0.316339 4.985338
v -0.105924 0.356394 4.945283
v -0.222125 0.371056 -4.801917
v -0.165478 0.261622 -4.703802
v -0.193802 0.356394 -4.752859
v -0.173067 0.316339 -4.716946
v -0.077245 0.261622 -4.727444
v -0.091652 0.371056 -4.836877
v -0.079175 0.316339 -4.742105
v -0.084449 0.356394 -4.782161
v -0.301917 0.371056 -4.722126
v -0.203802 0.261622 -4.665478
v -0.252859 0.356394 -4.693802
v -0.216947 0.316339 -4.673068
v -0.336877 0.371056 -4.591652
v -0.227444 0.261622 -4.577245
v -0.282161 0.356394 -4.584448
v -0.242105 0.316339 -4.579175
v 0.336877 0.371056 4.591652
v 0.227444 0.261622 4.577245
v 0.282161 0.356394 4.584448
v 0.242105 0.316339 4.579175
v 0.203802 0.261622 4.665478
v 0.301917 0.371056 4.722126
v 0.216947 0.316339 4.673068
v 0.252859 0.356394 4.693802
v 0.165478 0.261622 4.703802
v 0.222125 0.371056 4.801917
v 0.173067 0.316339 4.716946
v 0.193802 0.356394 4.752859
v 0.077245 0.261622 4.727444
v 0.091652 0.371056 4.836877
v 0.079175 0.316339 4.742105
v 0.084449 0.356394 4.782161
v 0.301917 0.371056 -4.722126
v 0.203802 0.261622 -4.665478
v 0.252859 0.356394 -4.693802
v 0.216947 0.316339 -4.673068
v 0.227444 0.261622 -4.577245
v 0.336877 0.371056 -4.591652
v 0.242105 0.316339 -4.579175
v 0.282161 0.356394 -4.584448
v 0.222125 0.371056 -4.801917
v 0.165478 0.261622 -4.703802
v 0.193802 0.356394 -4.752859
v 0.173067 0.316339 -4.716946
v 0.091652 0.371056 -4.836877
v 0.077245 0.261622 -4.727444
v 0.084449 0.356394 -4.782161
v 0.079175 0.316339 -4.742105
v -0.301917 0.371056 4.722126
v -0.203802 0.261622 4.665478
v -0.252859 0.356394 4.693802
v -0.216947 0.316339 4.673068
v -0.227444 0.261622 4.577245
v -0.336877 0.371056 4.591652
v -0.242105 0.316339 4.579175
v -0.282161 0.356394 4.584448
v -0.222125 0.371056 4.801917
v -0.165478 0.261622 4.703802
v -0.193802 0.356394 4.752859
v -0.173067 0.316339 4.716946
v -0.091652 0.371056 4.836877
v -0.077245 0.261622 4.727444
v -0.084449 0.356394 4.782161
v -0.079175 0.316339 4.742105
vn -0.0000 -1.0000 -0.0000
vn 0.1305 -0.0000 0.9914
vn -0.1305 -0.0000 0.9914
vn 0.9914 -0.0000 -0.1305
vn 0.9914 -0.0000 0.1305
vn -0.0000 1.0000 -0.0000
vn -0.1305 -0.0000 -0.9914
vn 0.1305 -0.0000 -0.9914
vn -0.5000 -0.0000 -0.8660
vn -0.8660 -0.0000 -0.5000
vn -0.9914 -0.0000 -0.1305
vn 0.8660 -0.0000 0.5000
vn 0.5000 -0.0000 0.8660
vn 0.8660 -0.0000 -0.5000
vn 0.5000 -0.0000 -0.8660
vn -0.9914 -0.0000 0.1305
vn -0.8660 -0.0000 0.5000
vn -0.5000 -0.0000 0.8660
vn -0.9826 0.1330 0.1294
vn -0.8577 0.1380 0.4952
vn 0.4952 0.1380 0.8577
vn 0.8577 0.1380 0.4952
vn 0.9826 0.1330 0.1294
vn -0.1294 0.1302 0.9830
vn -0.4956 0.1320 0.8584
vn 0.1178 0.9929 0.0155
vn 0.0913 0.9944 0.0527
vn -0.1272 0.9892 -0.0734
vn -0.1388 0.9901 -0.0183
vn -0.0527 0.9944 0.0913
vn -0.0913 0.9944 0.0527
vn 0.1272 0.9892 -0.0734
vn 0.0734 0.9892 -0.1272
vn -0.8577 0.1380 -0.4952
vn -0.9826 0.1330 -0.1294
vn 0.8584 0.1320 0.4956
vn 0.4956 0.1320 0.8584
vn -0.0527 0.9944 -0.0913
vn -0.0155 0.9929 -0.1178
vn 0.0183 0.9901 0.1388
vn 0.0734 0.9892 0.1272
vn 0.4952 0.1379 -0.8577
vn 0.1294 0.1330 -0.9826
vn -0.1294 0.1302 -0.9830
vn 0.1294 0.1302 -0.9830
vn 0.0155 0.9929 -0.1178
vn -0.0183 0.9901 0.1388
vn 0.8577 0.1380 -0.4952
vn 0.0527 0.9944 -0.0913
vn 0.0913 0.9944 -0.0527
vn -0.1272 0.9892 0.0734
vn -0.0734 0.9892 0.1272
vn 0.0155 0.9929 0.1178
vn -0.0155 0.9929 0.1178
vn 0.0183 0.9901 -0.1388
vn -0.0183 0.9901 -0.1388
vn -0.8584 0.1320 -0.4956
vn -0.4956 0.1320 -0.8584
vn 0.0527 0.9944 0.0913
vn -0.0734 0.9892 -0.1272
vn -0.9830 0.1302 0.1294
vn -0.9830 0.1302 -0.1294
vn 0.9830 0.1302 -0.1294
vn 0.9830 0.1302 0.1294
vn 0.1294 0.1302 0.9830
vn 0.4956 0.1320 -0.8584
vn 0.8584 0.1320 -0.4956
vn -0.8584 0.1320 0.4956
vn 0.1178 0.9929 -0.0155
vn -0.1388 0.9901 0.0183
vn 0.1294 0.1330 0.9826
vn -0.1178 0.9929 0.0155
vn 0.1388 0.9901 -0.0183
vn -0.1178 0.9929 -0.0155
vn -0.0913 0.9944 -0.0527
vn 0.1272 0.9892 0.0734
vn 0.1388 0.9901 0.0183
vn -0.1294 0.1330 0.9826
vn -0.4952 0.1379 -0.8577
vn 0.9826 0.1330 -0.1294
vn -0.1294 0.1330 -0.9826
vn -0.4952 0.1379 0.8577
vn -0.0670 0.8584 -0.5086
vn -0.2598 0.8544 -0.4500
vn -0.1135 0.4936 -0.8622
vn -0.4350 0.4931 -0.7534
vn -0.4500 0.8544 -0.2598
vn -0.7534 0.4931 -0.4350
vn -0.5086 0.8584 -0.0670
vn -0.8622 0.4936 -0.1135
vn 0.4500 0.8544 0.2598
vn 0.5086 0.8584 0.0670
vn 0.7534 0.4931 0.4350
vn 0.8622 0.4936 0.1135
vn 0.2598 0.8544 0.4500
vn 0.4350 0.4931 0.7534
vn 0.0670 0.8584 0.5086
vn 0.1135 0.4936 0.8622
vn 0.5086 0.8584 -0.0670
vn 0.4500 0.8544 -0.2598
vn 0.8622 0.4936 -0.1135
vn 0.7534 0.4931 -0.4350
vn 0.2598 0.8544 -0.4500
vn 0.4350 0.4931 -0.7534
vn 0.0670 0.8584 -0.5086
vn 0.1135 0.4936 -0.8622
vn -0.5086 0.8584 0.0670
vn -0.4500 0.8544 0.2598
vn -0.8622 0.4936 0.1135
vn -0.7534 0.4931 0.4350
vn -0.2598 0.8544 0.4500
vn -0.4350 0.4931 0.7534
vn -0.0670 0.8584 0.5086
vn -0.1135 0.4936 0.8622
vn 0.1121 0.5124 0.8514
vn 0.4236 0.5313 0.7337
vn 0.0627 0.8769 0.4766
vn 0.2276 0.8904 0.3942
vn 0.7337 0.5313 0.4236
vn 0.3942 0.8904 0.2276
vn 0.8514 0.5124 0.1121
vn 0.4766 0.8769 0.0627
vn -0.7337 0.5313 -0.4236
vn -0.8514 0.5124 -0.1121
vn -0.3942 0.8904 -0.2276
vn -0.4766 0.8769 -0.0627
vn -0.4236 0.5313 -0.7337
vn -0.2276 0.8904 -0.3942
vn -0.1121 0.5124 -0.8514
vn -0.0627 0.8769 -0.4766
vn -0.8514 0.5124 0.1121
vn -0.7337 0.5313 0.4236
vn -0.4766 0.8769 0.0627
vn -0.3942 0.8904 0.2276
vn -0.4236 0.5313 0.7337
vn -0.2276 0.8904 0.3942
vn -0.1121 0.5124 0.8514
vn -0.0627 0.8769 0.4766
vn 0.8514 0.5124 -0.1121
vn 0.7337 0.5313 -0.4236
vn 0.4766 0.8769 -0.0627
vn 0.3942 0.8904 -0.2276
vn 0.4236 0.5313 -0.7337
vn 0.2276 0.8904 -0.3942
vn 0.1121 0.5124 -0.8514
vn 0.0627 0.8769 -0.4766
vt 0.125000 0.596718
vt 0.126296 0.548359
vt 0.129836 0.512958
vt 0.134672 0.500000
vt 0.365328 0.500000
vt 0.370164 0.512958
vt 0.373704 0.548359
vt 0.375000 0.596718
vt 0.375000 0.653282
vt 0.373704 0.701641
vt 0.370164 0.737042
vt 0.365328 0.750000
vt 0.134672 0.750000
vt 0.129836 0.737042
vt 0.126296 0.701641
vt 0.125000 0.653282
vt 0.375000 0.096718
vt 0.625000 0.096718
vt 0.625000 0.153282
vt 0.375000 0.153282
vt 0.375000 0.759672
vt 0.625000 0.759672
vt 0.625000 0.990328
vt 0.375000 0.990328
vt 0.631814 0.605689
vt 0.632405 0.583630
vt 0.633363 0.574050
vt 0.635569 0.568139
vt 0.864431 0.568139
vt 0.866637 0.574050
vt 0.867595 0.583630
vt 0.868186 0.605689
vt 0.868186 0.644311
vt 0.867595 0.666370
vt 0.866637 0.675950
vt 0.864431 0.681861
vt 0.635569 0.681861
vt 0.633363 0.675950
vt 0.632405 0.666370
vt 0.631814 0.644311
vt 0.625000 0.596718
vt 0.625000 0.653282
vt 0.375000 0.548359
vt 0.625000 0.548359
vt 0.375000 0.495164
vt 0.625000 0.495164
vt 0.375000 0.490328
vt 0.625000 0.490328
vt 0.625000 1.000000
vt 0.375000 1.000000
vt 0.375000 0.000000
vt 0.625000 0.000000
vt 0.625000 0.048359
vt 0.375000 0.048359
vt 0.375000 0.754836
vt 0.625000 0.754836
vt 0.375000 0.701641
vt 0.625000 0.701641
vt 0.625000 0.259672
vt 0.375000 0.259672
vt 0.375000 0.254836
vt 0.625000 0.254836
vt 0.375000 0.201641
vt 0.625000 0.201641
vt 0.635569 0.568139
vt 0.635209 0.540781
vt 0.631947 0.549521
vt 0.631252 0.537487
vt 0.635032 0.527358
vt 0.629952 0.680531
vt 0.631947 0.700479
vt 0.631252 0.712513
vt 0.628749 0.687479
vt 0.870048 0.680531
vt 0.870922 0.647913
vt 0.872264 0.649680
vt 0.871251 0.687479
vt 0.868186 0.605689
vt 0.870922 0.647913
vt 0.870922 0.602087
vt 0.872264 0.600320
vt 0.872264 0.649680
vt 0.870048 0.569469
vt 0.868053 0.549521
vt 0.868748 0.537487
vt 0.871251 0.562521
vt 0.629078 0.602087
vt 0.629078 0.647913
vt 0.627736 0.649680
vt 0.627736 0.600320
vt 0.629952 0.569469
vt 0.629078 0.602087
vt 0.628749 0.562521
vt 0.625000 0.096718
vt 0.864791 0.540781
vt 0.864968 0.527358
vt 0.632405 0.583630
vt 0.635209 0.709219
vt 0.635032 0.722642
vt 0.864791 0.709219
vt 0.868053 0.700479
vt 0.868748 0.712513
vt 0.864968 0.722642
vt 0.631814 0.605689
vt 0.866637 0.675950
vt 0.864431 0.568139
vt 0.870922 0.602087
vt 0.872264 0.600320
vt 0.635569 0.681861
vt 0.635032 0.722642
vt 0.868186 0.644311
vt 0.631252 0.537487
vt 0.629078 0.647913
vt 0.627736 0.649680
vt 0.632405 0.666370
vt 0.635032 0.527358
vt 0.631814 0.644311
vt 0.868053 0.700479
vt 0.626368 0.598519
vt 0.627522 0.555440
vt 0.625000 0.596726
vt 0.625000 0.549308
vt 0.626555 0.545767
vt 0.629577 0.515550
vt 0.625000 0.499059
vt 0.625000 0.544465
vt 0.625000 0.547315
vt 0.625000 0.496208
vt 0.630190 0.512009
vt 0.634498 0.500466
vt 0.625000 0.490502
vt 0.625000 0.494810
vt 0.625000 0.495069
vt 0.625000 0.490375
vt 0.869810 0.737991
vt 0.865502 0.749534
vt 0.625000 0.990676
vt 0.625000 0.999292
vt 0.625000 0.999810
vt 0.625000 0.990421
vt 0.873445 0.704233
vt 0.870423 0.734450
vt 0.625000 0.003540
vt 0.625000 0.044819
vt 0.625000 0.047410
vt 0.625000 0.000949
vt 0.874953 0.655021
vt 0.873799 0.698101
vt 0.625000 0.051900
vt 0.625000 0.094979
vt 0.625000 0.096252
vt 0.625000 0.049308
vt 0.634498 0.749534
vt 0.630190 0.737991
vt 0.625000 0.755190
vt 0.625000 0.759498
vt 0.625000 0.759625
vt 0.625000 0.754931
vt 0.629577 0.734451
vt 0.626555 0.704233
vt 0.625000 0.705535
vt 0.625000 0.750941
vt 0.625000 0.753792
vt 0.625000 0.702684
vt 0.627522 0.694560
vt 0.626368 0.651481
vt 0.625000 0.700692
vt 0.625000 0.653274
vt 0.865502 0.500466
vt 0.869810 0.512009
vt 0.625000 0.255190
vt 0.625000 0.259498
vt 0.625000 0.259625
vt 0.625000 0.254931
vt 0.870423 0.515550
vt 0.873445 0.545767
vt 0.625000 0.205535
vt 0.625000 0.250941
vt 0.625000 0.253792
vt 0.625000 0.202685
vt 0.873799 0.551899
vt 0.874953 0.594979
vt 0.625000 0.155021
vt 0.625000 0.198100
vt 0.625000 0.200692
vt 0.625000 0.153748
vt 0.634852 0.500000
vt 0.865148 0.500000
vt 0.625000 0.259852
vt 0.625000 0.490148
vt 0.625000 0.490280
vt 0.625000 0.259720
vt 0.625000 0.097201
vt 0.625000 0.152799
vt 0.625000 0.098519
vt 0.625000 0.151481
vt 0.875000 0.598519
vt 0.875000 0.651481
vt 0.625000 0.759720
vt 0.625000 0.990280
vt 0.625000 0.759852
vt 0.625000 0.990148
vt 0.865148 0.750000
vt 0.634852 0.750000
vt 0.631808 0.605681
vt 0.632383 0.583503
vt 0.630446 0.603888
vt 0.631179 0.576550
vt 0.633350 0.573829
vt 0.632655 0.561785
vt 0.635568 0.568077
vt 0.635389 0.554460
vt 0.866650 0.676171
vt 0.864432 0.681924
vt 0.867345 0.688215
vt 0.864611 0.695540
vt 0.867617 0.666497
vt 0.868821 0.673450
vt 0.868192 0.644319
vt 0.869554 0.646112
vt 0.635568 0.681923
vt 0.633350 0.676170
vt 0.635389 0.695540
vt 0.632655 0.688215
vt 0.632383 0.666497
vt 0.631178 0.673450
vt 0.631808 0.644319
vt 0.630446 0.646112
vt 0.864432 0.568077
vt 0.866650 0.573829
vt 0.864611 0.554460
vt 0.867345 0.561785
vt 0.867617 0.583503
vt 0.868822 0.576550
vt 0.868192 0.605681
vt 0.869554 0.603888
s 1
usemtl Material
f 21/1/1 23/2/1 24/3/1 22/4/1 5/5/1 7/6/1 8/7/1 6/8/1 13/9/1 15/10/1 16/11/1 14/12/1 29/13/1 31/14/1 32/15/1 30/16/1
f 30/17/2 40/18/2 48/19/3 21/20/3
f 14/21/4 42/22/4 37/23/5 29/24/5
f 6/8/7 34/41/7 44/42/8 13/9/8
f 34/41/7 6/8/7 8/43/9 33/44/9
f 33/44/9 8/43/9 7/45/10 35/46/10
f 35/46/10 7/45/10 5/47/11 36/48/11
f 29/24/5 37/23/5 38/49/12 31/50/12
f 31/51/12 38/52/12 39/53/13 32/54/13
f 32/54/13 39/53/13 40/18/2 30/17/2
f 42/22/4 14/21/4 16/55/14 41/56/14
f 41/56/14 16/55/14 15/57/15 43/58/15
f 43/58/15 15/57/15 13/9/8 44/42/8
f 46/59/16 22/60/16 24/61/17 45/62/17
f 45/62/17 24/61/17 23/63/18 47/64/18
f 47/64/18 23/63/18 21/20/3 48/19/3
f 22/60/16 46/59/16 36/48/11 5/47/11
f 11/38/17 9/37/16 149/37/19 146/38/20
f 4/27/12 3/26/13 114/26/21 122/27/22
f 2/28/5 4/27/12 122/27/22 126/65/23
f 47/64/18 48/19/3 109/19/24 105/64/25
f 125/66/26 121/67/27 58/68/28 62/69/29
f 153/70/30 145/71/31 82/72/32 90/73/33
f 26/36/11 28/35/10 133/35/34 130/36/35
f 39/53/13 38/52/12 70/52/36 74/53/37
f 138/74/38 142/75/39 77/76/40 73/77/41
f 18/32/8 20/31/15 170/31/42 174/78/43
f 44/42/8 34/41/7 54/41/44 93/42/45
f 142/79/39 173/80/46 110/81/47 77/82/40
f 20/31/15 19/30/14 162/30/48 170/31/42
f 169/83/49 161/84/50 98/85/51 106/86/52
f 118/87/53 157/88/54 94/89/55 53/90/56
f 33/44/9 35/46/10 57/46/57 49/44/58
f 113/91/59 118/92/53 53/90/56 50/93/60
f 36/48/11 46/59/16 102/59/61 61/48/62
f 37/23/5 42/22/4 86/22/63 65/23/64
f 40/18/2 39/53/13 74/53/37 78/94/65
f 48/19/3 40/18/2 78/18/65 109/19/24
f 41/56/14 43/58/15 89/58/66 81/56/67
f 43/58/15 44/42/8 93/42/45 89/58/66
f 46/59/16 45/62/17 97/62/68 102/59/61
f 45/62/17 47/64/18 105/64/25 97/62/68
f 161/84/50 166/95/69 101/96/70 98/85/51
f 3/26/13 1/25/2 117/25/71 114/97/21
f 38/49/12 37/23/5 65/23/64 70/49/36
f 35/46/10 36/48/11 61/48/62 57/46/57
f 145/71/31 150/98/72 85/99/73 82/72/32
f 129/100/74 134/101/75 69/102/76 66/103/77
f 1/25/2 10/40/3 158/40/78 117/104/71
f 28/35/10 27/34/9 137/34/79 133/105/34
f 17/29/4 2/28/5 126/28/23 165/106/80
f 173/107/46 169/83/49 106/86/52 110/108/47
f 42/22/4 41/56/14 81/56/67 86/22/63
f 9/37/16 26/36/11 130/36/35 149/109/19
f 27/34/9 25/33/7 141/33/81 137/34/79
f 150/98/72 129/100/74 66/103/77 85/110/73
f 25/33/7 18/32/8 174/32/43 141/111/81
f 121/67/27 113/91/59 50/93/60 58/112/28
f 157/113/54 153/70/30 90/73/33 94/114/55
f 12/39/18 11/38/17 146/38/20 154/115/82
f 166/95/69 125/66/26 62/116/29 101/96/70
f 10/40/3 12/39/18 154/39/82 158/117/78
f 134/118/75 138/74/38 73/77/41 69/102/76
f 19/30/14 17/29/4 165/29/80 162/30/48
f 50/93/60 53/90/56 55/119/83 52/120/84
f 52/120/84 55/119/83 56/121/85 51/122/86
f 51/122/86 56/121/85 54/41/44 49/44/58
f 58/112/28 50/93/60 52/123/84 60/124/87
f 60/125/87 52/126/84 51/127/86 59/128/88
f 59/128/88 51/127/86 49/44/58 57/46/57
f 62/69/29 58/68/28 60/129/87 64/130/89
f 64/131/89 60/132/87 59/133/88 63/134/90
f 63/134/90 59/133/88 57/46/57 61/48/62
f 66/103/77 69/102/76 71/135/91 68/136/92
f 68/137/92 71/138/91 72/139/93 67/140/94
f 67/140/94 72/139/93 70/49/36 65/23/64
f 69/102/76 73/77/41 75/141/95 71/142/91
f 71/143/91 75/144/95 76/145/96 72/146/93
f 72/146/93 76/145/96 74/53/37 70/52/36
f 73/77/41 77/76/40 79/147/97 75/148/95
f 75/149/95 79/150/97 80/151/98 76/152/96
f 76/152/96 80/151/98 78/94/65 74/53/37
f 82/72/32 85/99/73 87/153/99 84/154/100
f 84/155/100 87/156/99 88/157/101 83/158/102
f 83/158/102 88/157/101 86/22/63 81/56/67
f 90/73/33 82/72/32 84/159/100 92/160/103
f 92/161/103 84/162/100 83/163/102 91/164/104
f 91/164/104 83/163/102 81/56/67 89/58/66
f 94/114/55 90/73/33 92/165/103 96/166/105
f 96/166/105 92/165/103 91/167/104 95/168/106
f 95/168/106 91/167/104 89/58/66 93/42/45
f 98/85/51 101/96/70 103/169/107 100/170/108
f 100/171/108 103/172/107 104/173/109 99/174/110
f 99/174/110 104/173/109 102/59/61 97/62/68
f 106/86/52 98/85/51 100/175/108 108/176/111
f 108/177/111 100/178/108 99/179/110 107/180/112
f 107/180/112 99/179/110 97/62/68 105/64/25
f 110/108/47 106/86/52 108/181/111 112/182/113
f 112/183/113 108/184/111 107/185/112 111/186/114
f 111/186/114 107/185/112 105/64/25 109/19/24
f 101/96/70 62/116/29 64/187/89 103/188/107
f 103/189/107 64/190/89 63/191/90 104/192/109
f 104/192/109 63/191/90 61/48/62 102/59/61
f 53/90/56 94/89/55 96/166/105 55/119/83
f 55/119/83 96/166/105 95/168/106 56/121/85
f 56/121/85 95/168/106 93/42/45 54/41/44
f 109/19/24 78/18/65 80/193/98 111/194/114
f 111/194/114 80/193/98 79/195/97 112/196/113
f 112/197/113 79/198/97 77/82/40 110/81/47
f 65/23/64 86/22/63 88/199/101 67/200/94
f 67/200/94 88/199/101 87/201/99 68/202/92
f 68/203/92 87/204/99 85/110/73 66/103/77
f 114/97/21 117/25/71 119/205/115 116/206/116
f 116/206/116 119/205/115 120/207/117 115/208/118
f 115/208/118 120/207/117 118/92/53 113/91/59
f 122/27/22 114/26/21 116/206/116 124/209/119
f 124/209/119 116/206/116 115/208/118 123/210/120
f 123/210/120 115/208/118 113/91/59 121/67/27
f 126/65/23 122/27/22 124/209/119 128/211/121
f 128/211/121 124/209/119 123/210/120 127/212/122
f 127/212/122 123/210/120 121/67/27 125/66/26
f 130/36/35 133/35/34 135/213/123 132/214/124
f 132/214/124 135/213/123 136/215/125 131/216/126
f 131/216/126 136/215/125 134/101/75 129/100/74
f 133/105/34 137/34/79 139/217/127 135/213/123
f 135/213/123 139/217/127 140/218/128 136/215/125
f 136/215/125 140/218/128 138/74/38 134/118/75
f 137/34/79 141/33/81 143/219/129 139/217/127
f 139/217/127 143/219/129 144/220/130 140/218/128
f 140/218/128 144/220/130 142/75/39 138/74/38
f 146/38/20 149/37/19 151/221/131 148/222/132
f 148/222/132 151/221/131 152/223/133 147/224/134
f 147/224/134 152/223/133 150/98/72 145/71/31
f 154/115/82 146/38/20 148/222/132 156/225/135
f 156/225/135 148/222/132 147/224/134 155/226/136
f 155/226/136 147/224/134 145/71/31 153/70/30
f 158/117/78 154/39/82 156/225/135 160/227/137
f 160/227/137 156/225/135 155/226/136 159/228/138
f 159/228/138 155/226/136 153/70/30 157/113/54
f 162/30/48 165/29/80 167/229/139 164/230/140
f 164/230/140 167/229/139 168/231/141 163/232/142
f 163/232/142 168/231/141 166/95/69 161/84/50
f 170/31/42 162/30/48 164/230/140 172/233/143
f 172/233/143 164/230/140 163/232/142 171/234/144
f 171/234/144 163/232/142 161/84/50 169/83/49
f 174/78/43 170/31/42 172/233/143 176/235/145
f 176/235/145 172/233/143 171/234/144 175/236/146
f 175/236/146 171/234/144 169/83/49 173/107/46
f 165/106/80 126/28/23 128/211/121 167/229/139
f 167/229/139 128/211/121 127/212/122 168/231/141
f 168/231/141 127/212/122 125/66/26 166/95/69
f 117/104/71 158/40/78 160/227/137 119/205/115
f 119/205/115 160/227/137 159/228/138 120/207/117
f 120/207/117 159/228/138 157/88/54 118/87/53
f 173/80/46 142/79/39 144/220/130 175/236/146
f 175/236/146 144/220/130 143/219/129 176/235/145
f 176/235/145 143/219/129 141/111/81 174/32/43
f 129/100/74 150/98/72 152/223/133 131/216/126
f 131/216/126 152/223/133 151/221/131 132/214/124
f 132/214/124 151/221/131 149/109/19 130/36/35
f 34/41/7 33/44/9 49/44/58 54/41/44
usemtl GUIVoid
f 1/25/6 3/26/6 4/27/6 2/28/6 17/29/6 19/30/6 20/31/6 18/32/6 25/33/6 27/34/6 28/35/6 26/36/6 9/37/6 11/38/6 12/39/6 10/40/6
