# Blender 4.2.2 LTS
# www.blender.org
mtllib tile.mtl
o Outline
v -1.000000 0.000000 1.000000
v 1.000000 0.000000 1.000000
v -1.000000 0.000000 -1.000000
v 1.000000 0.000000 -1.000000
v -0.856251 0.000000 -0.856251
v -0.856251 0.000000 0.856251
v 0.856251 0.000000 0.856251
v 0.856251 0.000000 -0.856251
vn -0.0000 1.0000 -0.0000
vt 0.030186 0.030186
vt 0.030186 0.969814
vt 0.000000 1.000000
vt 0.000000 0.000000
vt 0.969814 0.030186
vt 1.000000 0.000000
vt 0.969814 0.969814
vt 1.000000 1.000000
s 0
usemtl Tile
f 6/1/1 5/2/1 3/3/1 1/4/1
f 7/5/1 6/1/1 1/4/1 2/6/1
f 8/7/1 7/5/1 2/6/1 4/8/1
f 5/2/1 8/7/1 4/8/1 3/3/1
